<?xml version="1.0" encoding="UTF-8" standalone="no"?><!DOCTYPE svg PUBLIC "-//W3C//DTD SVG 1.1//EN" "http://www.w3.org/Graphics/SVG/1.1/DTD/svg11.dtd"><svg width="100%" height="100%" viewBox="0 0 4183 1089" version="1.1" xmlns="http://www.w3.org/2000/svg" xmlns:xlink="http://www.w3.org/1999/xlink" xml:space="preserve" xmlns:serif="http://www.serif.com/" style="fill-rule:evenodd;clip-rule:evenodd;stroke-linejoin:round;stroke-miterlimit:2;"><path d="M1020.28,1078.12c42.773,0 73.242,-27.539 73.242,-76.758l-0,-247.265l2.929,-0c33.985,69.726 104.297,113.086 194.532,113.086c155.859,-0 255.468,-122.461 255.468,-320.508c0,-198.633 -100.195,-321.094 -257.812,-321.094c-90.234,-0 -160.547,45.703 -195.703,117.773l-2.93,0l0,-44.531c0,-48.047 -29.883,-75 -71.484,-75c-41.602,0 -70.899,26.953 -70.899,75l0,702.539c0,49.219 29.883,76.758 72.657,76.758Zm223.828,-330.469c-90.821,0 -151.172,-79.101 -151.758,-200.976c0.586,-120.703 60.937,-200.977 151.758,-200.977c94.336,0 152.929,78.516 152.929,200.977c0,123.047 -58.593,200.976 -152.929,200.976Z" style="fill-rule:nonzero;"/><path d="M1717.55,868.945c42.774,0 72.656,-27.539 72.656,-76.758l0,-291.796c0,-91.407 53.321,-152.344 141.211,-152.344c84.375,-0 127.735,52.148 127.735,138.867l-0,305.274c-0,49.218 29.883,76.757 72.656,76.757c42.773,0 73.242,-27.539 73.242,-76.757l0,-335.157c0,-142.383 -80.273,-232.617 -217.383,-232.617c-94.336,0 -162.89,42.774 -196.289,118.359l-2.929,0l-0,-267.773c-0,-46.289 -26.953,-75 -72.071,-75c-44.531,0 -72.07,28.711 -72.07,75l0,717.188c0,49.218 30.469,76.757 73.242,76.757Z" style="fill-rule:nonzero;"/><path d="M2408.95,1088.09c124.219,-0 188.672,-53.906 244.922,-208.594l204.493,-547.265c5.273,-14.063 8.203,-30.469 8.203,-42.188c-0,-38.672 -29.297,-66.211 -70.899,-66.211c-36.914,0 -58.008,16.992 -70.312,56.836l-148.242,452.344l-2.344,-0l-148.242,-451.758c-12.305,-41.016 -32.813,-57.422 -69.727,-57.422c-42.773,0 -75,28.125 -75,67.969c0,11.719 2.93,26.953 8.203,41.601l203.32,534.961l-10.546,30.469c-21.68,54.492 -55.664,71.484 -88.477,71.484c-13.477,0 -19.336,-0.585 -31.641,-0.585c-33.984,-0 -55.078,19.335 -55.078,49.218c0,44.532 35.742,69.141 101.367,69.141Z" style="fill-rule:nonzero;"/><path d="M3023.6,868.945c42.773,0 72.656,-27.539 72.656,-76.758l0,-715.429c0,-49.219 -29.883,-76.758 -72.656,-76.758c-42.774,-0 -73.242,27.539 -73.242,76.758l-0,715.43c-0,49.218 30.468,76.757 73.242,76.757Z" style="fill-rule:nonzero;"/><path d="M3496.45,869.531c118.36,0 210.938,-46.289 251.954,-125.39c6.445,-12.891 9.961,-25.782 9.961,-36.914c-0,-35.157 -25.782,-56.25 -58.594,-56.25c-20.508,-0 -33.985,6.445 -49.219,23.437c-46.875,59.766 -89.648,82.617 -155.273,82.617c-94.922,0 -155.274,-66.797 -155.274,-170.508l0,-4.687l366.211,-0c43.359,-0 67.969,-25.781 67.969,-69.141c-0,-168.75 -116.016,-289.453 -285.938,-289.453c-179.297,0 -293.554,127.735 -293.554,325.781c-0,201.563 111.914,320.508 301.757,320.508Zm-155.273,-383.789c5.859,-89.062 65.625,-149.414 147.656,-149.414c82.032,0 139.453,59.18 142.383,149.414l-290.039,0Z" style="fill-rule:nonzero;"/><path d="M3908.37,703.711c-0,106.055 55.078,159.961 163.476,159.961l5.859,-0c66.797,-0 104.297,-22.852 104.297,-65.625c0,-33.985 -19.922,-50.391 -58.593,-53.906l-10.547,-1.172c-42.188,-3.516 -58.594,-24.024 -58.594,-70.899l-0,-323.437l67.383,-0c36.328,-0 58.594,-21.68 58.594,-56.836c-0,-34.57 -22.266,-55.664 -58.594,-55.664l-67.383,-0l-0,-82.617c-0,-46.875 -28.125,-76.172 -72.656,-76.172c-45.117,-0 -73.242,29.297 -73.242,76.172l-0,82.617l-39.258,-0c-36.328,-0 -58.594,21.094 -58.594,55.664c-0,35.156 22.266,56.836 58.594,56.836l39.258,-0l-0,355.078Z" style="fill-rule:nonzero;"/><path d="M25.071,561.198l102.027,0c9.402,0 18.107,-2.661 20.545,-7.483l10.099,-21.453l49.098,108.593c4.527,9.978 38.651,9.978 41.785,-0.166l42.481,-133.371l49.795,205.711c3.134,12.306 40.045,12.139 42.135,-0l45.963,-245.291l45.617,245.125c2.438,12.472 38.999,12.472 42.133,-0l49.795,-205.545l42.831,133.537c3.133,10.144 36.91,10.144 41.788,0l48.401,-107.262l10.441,20.122c3.137,5.487 11.147,7.483 20.545,7.483l98.899,0c13.928,0 24.718,-5.155 24.718,-11.641c-0,-6.485 -10.79,-11.806 -24.718,-11.806l-83.572,-0l-27.857,-51.553c-6.267,-11.142 -36.563,-11.142 -41.441,-0l-43.178,97.118l-49.098,-153.161c-3.83,-12.14 -39,-11.807 -42.134,0.167l-43.874,181.764l-48.055,-259.426c-2.089,-12.472 -40.393,-12.472 -42.83,0l-48.053,259.426l-43.875,-181.764c-2.785,-12.307 -37.956,-12.307 -42.133,-0.167l-49.1,153.161l-42.83,-97.118c-4.875,-10.311 -35.866,-10.311 -41.786,-0l-27.856,51.553l-86.706,-0c-13.929,-0 -25.071,5.321 -25.071,11.806c0,6.486 11.142,11.641 25.071,11.641Z" style="fill:#9b1aff;fill-rule:nonzero;"/></svg>